<svg xmlns="http://www.w3.org/2000/svg" viewBox="0 0 32 32"><defs><style>.cls-1{fill:#85BB65;}</style></defs><g id="money"><path class="cls-1" d="M29.76,12.59A2.69,2.69,0,0,0,27.3,11H27v-.3A2.7,2.7,0,0,0,24.3,8H11a1,1,0,0,0,0,2H24.3a.7.7,0,0,1,.7.7v7.6a.7.7,0,0,1-.7.7H23a1,1,0,0,0,0,2h1.3A2.7,2.7,0,0,0,27,18.3V13h.3a.69.69,0,0,1,.64.41.72.72,0,0,1,.06.29v7.6a.7.7,0,0,1-.7.7H7.7a.7.7,0,0,1-.7-.7V21H19a1,1,0,0,0,0-2H4.7a.7.7,0,0,1-.7-.7V10.7a.7.7,0,0,1,.7-.7H7A1,1,0,0,0,7,8H4.7A2.7,2.7,0,0,0,2,10.7v7.6A2.7,2.7,0,0,0,4.7,21H5v.3A2.7,2.7,0,0,0,7.7,24H27.3A2.7,2.7,0,0,0,30,21.3V13.7A2.64,2.64,0,0,0,29.76,12.59Z"/><path class="cls-1" d="M14.82,15.42a1,1,0,0,1-.33.05l-.18,0-.14,0-.12-.08-.11-.07a.33.33,0,0,0-.15,0H12.65a.12.12,0,0,0-.09,0,.1.1,0,0,0,0,.09,1.07,1.07,0,0,0,.17.54,1.25,1.25,0,0,0,.47.44,2.15,2.15,0,0,0,.8.26V17a.15.15,0,0,0,0,.12.15.15,0,0,0,.11,0h.72a.16.16,0,0,0,.12,0A.17.17,0,0,0,15,17v-.42a2.49,2.49,0,0,0,.77-.25,1.48,1.48,0,0,0,.52-.47,1.11,1.11,0,0,0,.19-.65,1.21,1.21,0,0,0-.17-.65,1.06,1.06,0,0,0-.52-.42,3.56,3.56,0,0,0-1-.23l-.42-.07a.56.56,0,0,1-.19-.09.12.12,0,0,1-.06-.1.13.13,0,0,1,.07-.12.42.42,0,0,1,.22,0,.65.65,0,0,1,.21,0l.11.07a.3.3,0,0,0,.1.07.25.25,0,0,0,.13,0h1.2a.18.18,0,0,0,.09,0,.18.18,0,0,0,0-.1,1,1,0,0,0-.16-.45,1.72,1.72,0,0,0-.45-.44,2,2,0,0,0-.72-.28V12a.19.19,0,0,0,0-.12.16.16,0,0,0-.12,0h-.72a.15.15,0,0,0-.11,0A.16.16,0,0,0,14,12v.42a1.73,1.73,0,0,0-1,.46,1.16,1.16,0,0,0-.37.87,1.18,1.18,0,0,0,.19.67,1.38,1.38,0,0,0,.54.43,3,3,0,0,0,.82.22c.2,0,.35.05.46.07a.75.75,0,0,1,.24.09.13.13,0,0,1,.07.12S14.9,15.39,14.82,15.42Z"/></g></svg>
